<svg width="600" height="400" viewBox="0 0 600 400" fill="none" xmlns="http://www.w3.org/2000/svg">
  <ellipse cx="300" cy="350" rx="250" ry="40" fill="#A5D6A7"/>
  <ellipse cx="300" cy="370" rx="180" ry="20" fill="#66BB6A"/>
  <g>
    <rect x="120" y="180" width="360" height="120" rx="30" fill="#FFFDE7" stroke="#43A047" stroke-width="4"/>
    <ellipse cx="300" cy="240" rx="120" ry="40" fill="#FFF9C4"/>
    <ellipse cx="300" cy="240" rx="80" ry="20" fill="#FFD54F"/>
    <rect x="270" y="120" width="60" height="100" rx="20" fill="#8D6E63"/>
    <ellipse cx="300" cy="120" rx="30" ry="20" fill="#43A047"/>
    <ellipse cx="300" cy="110" rx="20" ry="10" fill="#66BB6A"/>
    <ellipse cx="300" cy="100" rx="10" ry="5" fill="#A5D6A7"/>
  </g>
  <g>
    <ellipse cx="180" cy="200" rx="20" ry="8" fill="#43A047"/>
    <ellipse cx="420" cy="200" rx="20" ry="8" fill="#43A047"/>
    <ellipse cx="150" cy="220" rx="10" ry="4" fill="#66BB6A"/>
    <ellipse cx="450" cy="220" rx="10" ry="4" fill="#66BB6A"/>
  </g>
  <g>
    <ellipse cx="300" cy="320" rx="60" ry="10" fill="#8D6E63"/>
    <ellipse cx="300" cy="330" rx="40" ry="6" fill="#A1887F"/>
  </g>
  <g>
    <circle cx="500" cy="80" r="30" fill="#FFF9C4"/>
    <circle cx="500" cy="80" r="20" fill="#FFD54F"/>
    <circle cx="500" cy="80" r="10" fill="#FFECB3"/>
  </g>
</svg>
